<svg width="800" height="800" viewBox="0 0 800 800" fill="none" xmlns="http://www.w3.org/2000/svg">
<path d="M673.632 0C666.266 0 660.443 5.62244 659.631 12.7761H140.345C139.549 5.62244 133.706 0 126.336 0C118.427 0 112.028 6.39824 112.028 14.3072V27.0833V84.3163V97.0923C112.028 105.009 118.427 111.4 126.336 111.4C133.706 111.4 139.544 105.777 140.345 98.6235H173.985C227.025 196.177 199.325 293.319 169.833 396.041C141.288 495.482 111.861 598.098 160.92 701.356H140.345C139.549 694.203 133.706 688.588 126.336 688.588C118.427 688.588 112.028 694.982 112.028 702.895V715.667V772.9V785.689C112.028 793.61 118.427 799.996 126.336 799.996C133.706 799.996 139.544 794.365 140.345 787.212H659.635C660.456 794.365 666.286 799.996 673.648 799.996C681.569 799.996 687.959 793.614 687.959 785.689V772.9V715.667V702.895C687.959 694.982 681.573 688.588 673.648 688.588C666.286 688.588 660.46 694.203 659.635 701.356H622.368C569.325 603.811 597.102 506.669 626.586 403.954C655.148 304.51 684.558 201.885 635.504 98.6235H659.663C660.472 105.777 666.299 111.4 673.665 111.4C681.573 111.4 687.972 105.009 687.972 97.0923V84.3163V27.0874V14.3072C687.939 6.41457 681.541 0 673.632 0ZM659.329 758.597H140.643V729.979H659.325V758.597H659.329ZM599.074 396.046C570.68 494.926 541.392 596.926 589.266 699.576H192C140.288 602.631 168.004 506.049 197.316 403.963C225.71 305.09 254.999 203.078 207.12 100.42H604.411C656.123 197.369 628.387 293.951 599.074 396.046ZM140.643 41.3946H659.325V70.009H140.643V41.3946Z" fill="white"/>
<line x1="281" y1="191" x2="566" y2="191" stroke="white" stroke-width="10"/>
<line x1="269" y1="390" x2="554" y2="390" stroke="white" stroke-width="10"/>
<line x1="270" y1="222" x2="555" y2="222" stroke="white" stroke-width="10"/>
<line x1="257" y1="421" x2="542" y2="421" stroke="white" stroke-width="10"/>
<line x1="245" y1="481" x2="530" y2="481" stroke="white" stroke-width="10"/>
<line x1="270" y1="291" x2="555" y2="291" stroke="white" stroke-width="10"/>
<line x1="245" y1="524" x2="530" y2="524" stroke="white" stroke-width="10"/>
<line x1="257" y1="325" x2="542" y2="325" stroke="white" stroke-width="10"/>
<line x1="245" y1="558" x2="530" y2="558" stroke="white" stroke-width="10"/>
<path d="M650.927 451.757C655.87 445.591 654.878 436.586 648.71 431.644C642.544 426.702 633.54 427.694 628.598 433.861L650.927 451.757ZM527.242 583.204L538.078 592.546C538.19 592.416 538.3 592.285 538.407 592.151L527.242 583.204ZM523.979 591.178L509.699 590.245L509.686 590.516L523.979 591.178ZM521.308 648.85L507.015 648.188C506.982 648.898 507.002 649.61 507.076 650.317L521.308 648.85ZM536.323 661.957L536.79 676.258C537.745 676.225 538.693 676.099 539.622 675.878L536.323 661.957ZM593.556 648.393L596.857 662.316L597.078 662.26L593.556 648.393ZM600.901 643.738L611.94 652.843L612.064 652.689L600.901 643.738ZM727.294 508.995C732.237 502.829 731.247 493.824 725.083 488.88C718.919 483.936 709.912 484.926 704.969 491.092L727.294 508.995ZM628.657 433.857C623.714 440.021 624.703 449.027 630.869 453.971C637.033 458.915 646.037 457.926 650.982 451.761L628.657 433.857ZM670.116 405.035L681.278 413.987C681.465 413.753 681.646 413.512 681.82 413.266L670.116 405.035ZM701.193 398.93L710.347 387.933C709.891 387.553 709.412 387.203 708.914 386.883L701.193 398.93ZM743.871 434.453L753.997 424.345C753.686 424.033 753.362 423.737 753.024 423.456L743.871 434.453ZM743.699 465.702L733.683 455.484C733.278 455.881 732.897 456.302 732.54 456.745L743.699 465.702ZM704.969 491.092C700.022 497.254 701.012 506.253 707.174 511.2C713.336 516.147 722.347 515.157 727.294 508.995L704.969 491.092ZM653.97 440.689C652.799 432.874 645.515 427.488 637.7 428.659C629.884 429.83 624.499 437.114 625.67 444.929L653.97 440.689ZM718.058 514.22C725.888 513.157 731.373 505.946 730.31 498.116C729.245 490.286 722.036 484.8 714.204 485.864L718.058 514.22ZM628.598 433.861L516.077 574.254L538.407 592.151L650.927 451.757L628.598 433.861ZM516.405 573.859C512.449 578.447 510.093 584.199 509.699 590.245L538.257 592.109C538.247 592.269 538.184 592.424 538.078 592.546L516.405 573.859ZM509.686 590.516L507.015 648.188L535.602 649.512L538.272 591.84L509.686 590.516ZM507.076 650.317C508.634 665.425 521.611 676.754 536.79 676.258L535.855 647.656C535.794 647.658 535.764 647.649 535.744 647.641C535.717 647.631 535.681 647.612 535.644 647.58C535.607 647.547 535.583 647.515 535.57 647.49C535.56 647.471 535.548 647.442 535.541 647.381L507.076 650.317ZM539.622 675.878L596.857 662.316L590.256 634.47L533.023 648.034L539.622 675.878ZM597.078 662.26C602.906 660.78 608.113 657.483 611.94 652.843L589.863 634.632C589.908 634.578 589.968 634.54 590.034 634.523L597.078 662.26ZM612.064 652.689L727.294 508.995L704.969 491.092L589.739 634.786L612.064 652.689ZM650.982 451.761L681.278 413.987L658.953 396.083L628.657 433.857L650.982 451.761ZM681.82 413.266C684.464 409.506 689.602 408.496 693.473 410.977L708.914 386.883C692.139 376.133 669.873 380.507 658.411 396.803L681.82 413.266ZM692.04 409.927L734.717 445.45L753.024 423.456L710.347 387.933L692.04 409.927ZM733.744 444.561C735.192 446.013 736.001 447.984 735.989 450.035L764.606 450.192C764.66 440.506 760.84 431.2 753.997 424.345L733.744 444.561ZM735.989 450.035C735.98 452.086 735.148 454.048 733.683 455.484L753.715 475.921C760.632 469.141 764.553 459.878 764.606 450.192L735.989 450.035ZM732.54 456.745L704.969 491.092L727.294 508.995L754.857 474.66L732.54 456.745ZM625.67 444.929C632.334 489.406 673.494 520.275 718.058 514.22L714.204 485.864C685.151 489.812 658.316 469.686 653.97 440.689L625.67 444.929Z" fill="white"/>
</svg>
